<?xml version="1.0" encoding="UTF-8"?><svg id="Layer_2" xmlns="http://www.w3.org/2000/svg" viewBox="0 0 145.84 89.52"><defs><style>.cls-1{fill:#3e526d;}.cls-2{fill:#709342;}.cls-3{fill:#58595b;}</style></defs><g id="Layer_1-2"><g><g><path class="cls-3" d="M14.92,85.33h.67l2.21,2.85v-2.85h.71v4.12h-.61l-2.27-2.93v2.93h-.71v-4.12Z"/><path class="cls-3" d="M23.27,85.3h.67l1.81,4.15h-.77l-.42-1h-1.95l-.42,1h-.74l1.81-4.15Zm1.04,2.51l-.71-1.65-.71,1.65h1.42Z"/><path class="cls-3" d="M29.18,86h-1.31v-.67h3.34v.67h-1.31v3.45h-.73v-3.45Z"/><path class="cls-3" d="M34.15,87.7v-2.37h.72v2.34c0,.77,.39,1.18,1.04,1.18s1.04-.39,1.04-1.15v-2.37h.72v2.34c0,1.23-.69,1.85-1.77,1.85s-1.75-.62-1.75-1.81Z"/><path class="cls-3" d="M40.91,85.33h1.84c.52,0,.92,.15,1.19,.41,.22,.22,.34,.53,.34,.89h0c0,.69-.41,1.09-.98,1.26l1.11,1.56h-.85l-1.01-1.44h-.91v1.44h-.72v-4.12Zm1.78,2.04c.52,0,.85-.27,.85-.69h0c0-.45-.32-.69-.85-.69h-1.05v1.38h1.06Z"/><path class="cls-3" d="M47.41,85.33h3.06v.65h-2.33v1.07h2.07v.65h-2.07v1.11h2.36v.65h-3.08v-4.12Z"/><path class="cls-3" d="M53.29,86.69c.36-.06,.53-.25,.5-.55h-.3v-.81h.78v.69c0,.65-.31,.93-.91,.98l-.08-.31Z"/><path class="cls-3" d="M57.14,88.85l.44-.52c.39,.34,.79,.54,1.3,.54,.45,0,.73-.21,.73-.52h0c0-.31-.17-.47-.93-.64-.88-.21-1.37-.47-1.37-1.23h0c0-.72,.59-1.21,1.41-1.21,.6,0,1.08,.18,1.5,.52l-.39,.55c-.37-.28-.74-.42-1.12-.42-.42,0-.67,.22-.67,.49h0c0,.33,.19,.47,.98,.66,.87,.21,1.32,.52,1.32,1.21h0c0,.78-.61,1.24-1.47,1.24-.63,0-1.22-.22-1.72-.66Z"/><path class="cls-3" d="M67.24,87.4h0c0-1.17,.9-2.14,2.16-2.14s2.15,.96,2.15,2.12h0c0,1.17-.89,2.14-2.16,2.14s-2.15-.96-2.15-2.12Zm3.55,0h0c0-.81-.58-1.48-1.4-1.48s-1.39,.65-1.39,1.45h0c0,.81,.58,1.48,1.4,1.48s1.39-.65,1.39-1.45Z"/><path class="cls-3" d="M74.13,85.33h.78l.98,3.06,1.01-3.07h.61l1.01,3.07,.98-3.06h.76l-1.44,4.15h-.62l-1.01-2.96-1.01,2.96h-.62l-1.44-4.15Z"/><path class="cls-3" d="M83.25,85.33h.67l2.21,2.85v-2.85h.71v4.12h-.61l-2.27-2.93v2.93h-.71v-4.12Z"/><path class="cls-3" d="M93.96,87.4h0c0-1.18,.88-2.14,2.13-2.14,.76,0,1.22,.26,1.61,.64l-.47,.54c-.33-.31-.68-.51-1.15-.51-.79,0-1.36,.65-1.36,1.45h0c0,.82,.57,1.48,1.36,1.48,.51,0,.83-.21,1.18-.54l.47,.47c-.43,.45-.9,.73-1.67,.73-1.2,0-2.1-.94-2.1-2.12Z"/><path class="cls-3" d="M100.43,87.4h0c0-1.17,.9-2.14,2.16-2.14s2.15,.96,2.15,2.12h0c0,1.17-.89,2.14-2.16,2.14s-2.15-.96-2.15-2.12Zm3.55,0h0c0-.81-.58-1.48-1.4-1.48s-1.39,.65-1.39,1.45h0c0,.81,.58,1.48,1.4,1.48s1.39-.65,1.39-1.45Z"/><path class="cls-3" d="M107.86,85.33h1.84c.52,0,.92,.15,1.19,.41,.22,.22,.34,.53,.34,.89h0c0,.69-.41,1.09-.98,1.26l1.11,1.56h-.85l-1.01-1.44h-.91v1.44h-.72v-4.12Zm1.78,2.04c.52,0,.85-.27,.85-.69h0c0-.45-.32-.69-.85-.69h-1.05v1.38h1.06Z"/><path class="cls-3" d="M114.35,85.33h.67l2.21,2.85v-2.85h.71v4.12h-.61l-2.27-2.93v2.93h-.71v-4.12Z"/><path class="cls-3" d="M121.24,85.33h3.06v.65h-2.33v1.07h2.07v.65h-2.07v1.11h2.36v.65h-3.08v-4.12Z"/><path class="cls-3" d="M127.42,85.33h1.84c.52,0,.92,.15,1.19,.41,.22,.22,.34,.53,.34,.89h0c0,.69-.41,1.09-.98,1.26l1.11,1.56h-.85l-1.01-1.44h-.91v1.44h-.72v-4.12Zm1.78,2.04c.52,0,.85-.27,.85-.69h0c0-.45-.32-.69-.85-.69h-1.05v1.38h1.06Z"/></g><g><path class="cls-1" d="M37.66,74.37h-12.29l-.03,.06c-1.21,2.66-3.87,4.37-6.79,4.37h0l10.55-23.51h4.84l10.55,23.51h0c-2.94,0-5.61-1.73-6.81-4.42v-.02Zm-6.15-14.14l-4.37,10.01h8.73l-4.37-10.01Z"/><path class="cls-1" d="M66.91,55.26h0v23.54h-2.75v.03l-12.36-15.89v11.42c0,2.45-1.98,4.43-4.43,4.43h0v-23.51h3.59l11.52,14.58v-10.18c0-2.45,1.98-4.43,4.43-4.43Z"/><path class="cls-1" d="M88.2,74.37h-12.29l-.03,.06c-1.21,2.66-3.87,4.37-6.79,4.37h0l10.55-23.51h4.84l10.55,23.51h0c-2.94,0-5.61-1.73-6.81-4.42v-.02Zm-6.15-14.14l-4.37,10.01h8.73l-4.37-10.01Z"/><path class="cls-1" d="M113.23,74.43v-5.1h-11.55v5.1c0,2.43-1.97,4.4-4.4,4.4h-.03v-23.51h0c2.45,0,4.43,1.98,4.43,4.43v5.47s11.55,0,11.55,0v-5.51c0-2.43,1.97-4.4,4.4-4.4h0v23.51h0c-2.43,0-4.4-1.97-4.4-4.4Z"/><path class="cls-1" d="M139.02,74.37h-12.29l-.03,.06c-1.21,2.66-3.87,4.37-6.79,4.37h0l10.55-23.51h4.84l10.55,23.51h0c-2.94,0-5.61-1.73-6.81-4.42v-.02Zm-6.15-14.14l-4.37,10.01h8.73l-4.37-10.01Z"/><path class="cls-1" d="M14.37,78.9h-4.6L0,55.29H0c3,0,5.68,1.84,6.77,4.64l5.29,13.67,5.32-13.67c1.09-2.79,3.78-4.63,6.77-4.63h0l-9.77,23.61Z"/></g><path class="cls-2" d="M97.16,18.88c-.01-.36-.03-.73-.06-1.09-.01-.17-.03-.34-.04-.51,0-.03,0-.07-.01-.1-.02-.19-.04-.38-.06-.56,0,0,0,0,0,0-.36-2.87-1.22-5.63-2.58-8.21l-.38-.72c-.05-.09-.1-.17-.15-.26-1.55-2.65-3.62-5.02-6.14-6.97L87.15,0l-.69,.27c-.32,.12-7.41,2.92-13.53,9.6C66.78,3.16,59.7,.39,59.39,.27l-.69-.27-.59,.45c-2.52,1.95-4.59,4.32-6.15,6.97-.05,.09-.1,.17-.15,.26l-.38,.72c-.82,1.56-1.46,3.18-1.91,4.85-.02,.06-.03,.12-.04,.17-.06,.22-.12,.45-.17,.67-.07,.29-.13,.58-.19,.88,0,.02,0,.03,0,.05-.03,.16-.06,.32-.09,.48,0,.05-.02,.1-.02,.14-.02,.13-.04,.26-.06,.4-.03,.18-.05,.37-.08,.55,0,.01,0,.02,0,.03-.02,.18-.04,.36-.06,.54,0,.04,0,.08-.01,.13-.02,.16-.03,.32-.04,.49-.03,.36-.05,.73-.06,1.1,0,.26-.01,.53-.01,.79,0,9.4,5.37,17.57,13.21,21.59,1.11,.57,2.27,1.05,3.47,1.45,1.75,.58,3.58,.96,5.48,1.12,.47,.04,.95,.07,1.43,.08h.11c.18,0,.37,0,.55,0s.38,0,.57,0h.09c.49-.02,.97-.04,1.45-.09,1.9-.16,3.73-.55,5.48-1.13,1.2-.4,2.36-.88,3.46-1.45,7.83-4.03,13.2-12.19,13.2-21.58,0-.26,0-.52-.01-.79Zm-10.43-15.85c1.84,1.52,3.38,3.31,4.6,5.28-4.98,1.92-9.44,5.15-12.82,9.3-1.12-2.01-2.4-3.92-3.85-5.71,4.69-5.21,10.18-8,12.07-8.86Zm-24.45,35.45c-6.49-3.69-10.9-10.64-10.97-18.61,6.67,3.03,11.03,9.7,11.03,17.13,0,.49-.02,.99-.06,1.48Zm-10.82-21.41s0,0,0,0c0,0,0,0,0-.01,.03-.25,.07-.51,.11-.76,0-.05,.02-.1,.02-.15,.04-.22,.08-.44,.12-.66,0-.04,.02-.08,.02-.11,.04-.21,.09-.43,.14-.64,0,0,0,0,0,0,.05-.24,.12-.47,.18-.7,.02-.09,.05-.18,.07-.27,.05-.16,.09-.32,.14-.48,.06-.19,.12-.38,.18-.57,0-.03,.02-.05,.03-.08,.23-.67,.49-1.33,.79-1.97,5.05,1.87,9.52,5.22,12.76,9.54-1.25,2.69-2.19,5.48-2.8,8.35-2.21-5.14-6.39-9.32-11.77-11.46Zm21.47,10.99c-.57-1.88-1.32-3.69-2.25-5.44-.5,1.07-.95,2.17-1.34,3.29,1.44,3.33,2.21,6.93,2.27,10.62v.07c0,.13,0,.27,0,.4s0,.27,0,.4v.07c-.02,1.26-.12,2.51-.31,3.75-2.18-.16-4.27-.65-6.22-1.41-.07-.94-.11-1.88-.11-2.81,0-4.82,.9-9.47,2.66-13.87,.42-1.09,.92-2.17,1.45-3.19,0,0,0,0,0,0,.67-1.31,1.42-2.57,2.24-3.79-.55-.73-1.13-1.43-1.74-2.11-.81,1.15-1.55,2.34-2.24,3.57-3.39-4.15-7.85-7.39-12.84-9.3,1.22-1.97,2.77-3.75,4.61-5.28,1.88,.85,7.35,3.62,12.08,8.87,0,0,0,0,0,0,.6,.65,1.19,1.34,1.73,2.05,0,0,0,0,0,0,1.47,1.87,2.76,3.88,3.85,5.99-1.69,2.52-2.98,5.25-3.85,8.12Zm8.1-5c-.64,.96-1.23,1.94-1.78,2.95,1.09,3.53,1.64,7.21,1.64,10.99,0,.92-.04,1.86-.11,2.81-1.95,.77-4.04,1.25-6.23,1.42-.19-1.24-.29-2.49-.31-3.75v-.07c0-.13,0-.27,0-.4s0-.27,0-.4v-.07c.08-4.65,1.29-9.14,3.52-13.15,.09-.17,.18-.33,.28-.49,.02-.03,.03-.06,.05-.09,0,0,0,0,0,0,.87-1.48,1.9-2.93,2.93-4.11,0,0,0,0,0,0,3.1-3.6,7.1-6.39,11.55-8.05,.3,.65,.56,1.31,.79,1.98,0,.03,.02,.05,.03,.08,.07,.2,.13,.39,.19,.59,.05,.16,.09,.31,.14,.47,.03,.09,.05,.18,.08,.28,.06,.23,.12,.47,.18,.7,0,0,0,0,0,0,.05,.21,.09,.43,.14,.64,0,.04,.02,.08,.02,.11,.04,.22,.08,.44,.12,.66,0,.05,.02,.1,.02,.15,.04,.25,.08,.51,.11,.76,0,0,0,0,0,0h0c-5.37,2.14-9.55,6.32-11.76,11.46-.4-1.86-.94-3.68-1.6-5.47Zm2.56,15.41c-.04-.49-.06-.98-.06-1.47,0-7.43,4.36-14.09,11.02-17.12-.08,7.96-4.47,14.9-10.96,18.59Z"/></g></g></svg>