<svg width="178" height="32" viewBox="0 0 178 32" fill="none" xmlns="http://www.w3.org/2000/svg">
<g clip-path="url(#clip0_3339_1554)">
<path d="M55.7376 24.8776C55.562 24.7193 55.3093 24.5652 54.9753 24.4027C55.8917 24.2786 56.5683 23.9834 57.0094 23.5171C57.4505 23.0508 57.6689 22.4818 57.6689 21.8058C57.6689 21.2796 57.5361 20.8005 57.2706 20.3641C57.0051 19.932 56.6497 19.6283 56.2086 19.4571C55.7632 19.286 55.1166 19.2004 54.2645 19.2004H50.0293V28.745H51.2926V24.5054H52.7571C53.0825 24.5054 53.3181 24.5225 53.4594 24.5524C53.6564 24.5995 53.8491 24.685 54.0375 24.8048C54.2259 24.9289 54.44 25.1385 54.6798 25.4423C54.9196 25.746 55.2237 26.1824 55.592 26.7557L56.8552 28.7407H58.4439L56.7824 26.1439C56.4527 25.6348 56.1015 25.2112 55.7333 24.8733L55.7376 24.8776ZM54.0118 23.4144H51.2926V20.2571H54.3158C55.0224 20.2571 55.5406 20.4026 55.8703 20.6935C56.2 20.9844 56.3628 21.3566 56.3628 21.8058C56.3628 22.1139 56.2771 22.4005 56.1101 22.6615C55.9431 22.9267 55.6947 23.115 55.3693 23.2347C55.0438 23.3545 54.5899 23.4144 54.0118 23.4144V23.4144Z" fill="white"/>
<path d="M62.3413 21.6731C61.3863 21.6731 60.6069 21.994 60.0074 22.6357C59.4079 23.2774 59.1082 24.1801 59.1082 25.3438C59.1082 26.5074 59.4036 27.3417 59.9989 27.962C60.5898 28.5866 61.3949 28.8989 62.4055 28.8989C63.2106 28.8989 63.87 28.7021 64.3882 28.3128C64.9063 27.9235 65.2575 27.3716 65.4502 26.6657L64.2383 26.516C64.0585 27.0122 63.8186 27.3716 63.5146 27.5983C63.2106 27.8251 62.8423 27.9363 62.4141 27.9363C61.836 27.9363 61.3521 27.7352 60.9667 27.3331C60.5813 26.9309 60.3671 26.3491 60.32 25.5876H65.4802C65.4802 25.4507 65.4887 25.3438 65.4887 25.2753C65.4887 24.133 65.1933 23.2475 64.6109 22.6186C64.0242 21.9897 63.2705 21.6731 62.3413 21.6731V21.6731ZM60.3886 24.6207C60.4271 24.0175 60.6326 23.5341 60.9966 23.1747C61.3649 22.8154 61.8145 22.6357 62.3541 22.6357C62.9493 22.6357 63.4332 22.8624 63.8058 23.3116C64.0499 23.6025 64.1955 24.0389 64.2469 24.6207H60.3843H60.3886Z" fill="white"/>
<path d="M72.525 25.8486V24.287C72.525 23.7651 72.5079 23.4058 72.465 23.2047C72.3965 22.8838 72.2723 22.6186 72.101 22.4047C71.9297 22.1908 71.6557 22.0196 71.2874 21.8827C70.9191 21.7458 70.4395 21.6731 69.8486 21.6731C69.2576 21.6731 68.7309 21.7544 68.277 21.917C67.8231 22.0795 67.4805 22.3105 67.2407 22.6143C67.0009 22.918 66.8296 23.3116 66.7268 23.8036L67.8744 23.9619C67.9986 23.4742 68.1956 23.1277 68.4568 22.9352C68.718 22.7426 69.1291 22.6442 69.6773 22.6442C70.2682 22.6442 70.7136 22.7769 71.0133 23.0421C71.236 23.2389 71.3474 23.5769 71.3474 24.0518C71.3474 24.0945 71.3474 24.1972 71.3388 24.3598C70.8934 24.5138 70.1954 24.6507 69.249 24.7619C68.7823 24.8175 68.4354 24.8774 68.2042 24.9373C67.8916 25.0272 67.6089 25.1512 67.3606 25.3224C67.1122 25.4935 66.9109 25.716 66.7525 25.9983C66.5983 26.2764 66.5212 26.5887 66.5212 26.9267C66.5212 27.5042 66.7268 27.9791 67.1336 28.347C67.5447 28.7192 68.1271 28.9032 68.8851 28.9032C69.3433 28.9032 69.7758 28.8262 70.1783 28.6764C70.5808 28.5267 71.0005 28.2657 71.433 27.8935C71.4673 28.2187 71.5443 28.5053 71.6685 28.7449H72.8933C72.7477 28.4796 72.6449 28.2058 72.5978 27.9149C72.5464 27.624 72.5207 26.9352 72.5207 25.8486H72.525ZM71.3388 25.7074C71.3388 26.2251 71.2746 26.6144 71.1504 26.8796C70.9834 27.2219 70.7264 27.4914 70.3753 27.6882C70.0241 27.885 69.6216 27.9834 69.1677 27.9834C68.7138 27.9834 68.3669 27.8807 68.1271 27.6711C67.8916 27.4614 67.7717 27.2005 67.7717 26.8882C67.7717 26.6828 67.8273 26.4989 67.9344 26.332C68.0414 26.1652 68.1956 26.0368 68.3969 25.9513C68.5981 25.8657 68.9364 25.7844 69.4203 25.716C70.2725 25.5962 70.9106 25.4464 71.3345 25.271V25.7031L71.3388 25.7074Z" fill="white"/>
<path d="M75.4919 19.2004H74.3186V28.745H75.4919V19.2004Z" fill="white"/>
<path d="M82.4588 24.3685H87.7431V23.2519H82.4588V20.3256H88.1029V19.2004H81.1956V28.745H88.3212V27.6199H82.4588V24.3685Z" fill="white"/>
<path d="M94.1455 25.0957C93.8158 24.9546 93.2376 24.7749 92.4069 24.5524C91.8331 24.3941 91.4862 24.2957 91.3706 24.2529C91.165 24.1717 91.0152 24.0647 90.9209 23.9406C90.8267 23.8208 90.7796 23.6839 90.7796 23.5299C90.7796 23.2904 90.8952 23.085 91.1222 22.9053C91.3535 22.7256 91.7389 22.6401 92.2784 22.6401C92.7323 22.6401 93.0878 22.7428 93.3361 22.9395C93.5845 23.1406 93.7387 23.4187 93.7901 23.7738L94.9377 23.6155C94.8649 23.1706 94.7279 22.8112 94.5352 22.546C94.3382 22.2807 94.0384 22.0668 93.6273 21.9128C93.2162 21.7588 92.7409 21.6775 92.1971 21.6775C91.8374 21.6775 91.499 21.7246 91.1822 21.8187C90.8653 21.9128 90.6169 22.024 90.437 22.1609C90.193 22.332 90.0003 22.5502 89.8589 22.8155C89.7176 23.0807 89.6491 23.3631 89.6491 23.6711C89.6491 24.0091 89.7348 24.3214 89.906 24.5995C90.0773 24.8818 90.33 25.1 90.664 25.2583C90.998 25.4166 91.5933 25.6048 92.454 25.823C93.0921 25.9856 93.4903 26.1182 93.653 26.2209C93.8843 26.3706 93.9999 26.5803 93.9999 26.8455C93.9999 27.1407 93.8671 27.3974 93.6102 27.6156C93.349 27.8338 92.9507 27.945 92.4112 27.945C91.8716 27.945 91.4605 27.8209 91.165 27.5728C90.8696 27.3247 90.6854 26.9696 90.6212 26.5033L89.4607 26.6872C89.5892 27.4188 89.8932 27.9749 90.3643 28.3471C90.8353 28.7193 91.5205 28.9076 92.4197 28.9076C92.9636 28.9076 93.4475 28.8135 93.88 28.6252C94.3125 28.437 94.6379 28.1675 94.8692 27.8252C95.0962 27.4787 95.2118 27.1108 95.2118 26.7214C95.2118 26.3321 95.1176 25.9899 94.9291 25.7203C94.7407 25.4508 94.4838 25.2455 94.1583 25.1043L94.1455 25.0957Z" fill="white"/>
<path d="M98.6377 27.7439C98.4665 27.7439 98.3294 27.7139 98.2352 27.6583C98.141 27.6027 98.0725 27.5257 98.0339 27.4316C97.9911 27.3375 97.974 27.1235 97.974 26.7856V22.7427H99.1516V21.8315H97.974V19.4143L96.8092 20.1159V21.8272H95.9485V22.7384H96.8092V26.7171C96.8092 27.4187 96.8563 27.8808 96.9505 28.099C97.0447 28.3171 97.2118 28.4968 97.4473 28.6295C97.6828 28.7621 98.0125 28.8305 98.4365 28.8305C98.6977 28.8305 98.9932 28.7963 99.3229 28.7279L99.1559 27.6925C98.9418 27.7225 98.7705 27.7396 98.642 27.7396L98.6377 27.7439Z" fill="white"/>
<path d="M105.905 25.8486V24.287C105.905 23.7651 105.888 23.4058 105.845 23.2047C105.776 22.8838 105.652 22.6186 105.481 22.4047C105.31 22.1908 105.036 22.0196 104.667 21.8827C104.299 21.7458 103.819 21.6731 103.228 21.6731C102.637 21.6731 102.111 21.7544 101.657 21.917C101.203 22.0795 100.86 22.3105 100.621 22.6143C100.381 22.918 100.209 23.3116 100.107 23.8036L101.254 23.9619C101.379 23.4742 101.575 23.1277 101.837 22.9352C102.098 22.7426 102.505 22.6442 103.057 22.6442C103.648 22.6442 104.093 22.7769 104.393 23.0421C104.616 23.2389 104.727 23.5769 104.727 24.0518C104.727 24.0945 104.727 24.1972 104.719 24.3598C104.273 24.5138 103.575 24.6507 102.629 24.7619C102.162 24.8175 101.815 24.8774 101.584 24.9373C101.271 25.0272 100.989 25.1512 100.74 25.3224C100.492 25.4935 100.287 25.716 100.132 25.9983C99.9782 26.2807 99.9011 26.5887 99.9011 26.9267C99.9011 27.5042 100.107 27.9791 100.513 28.347C100.92 28.7192 101.507 28.9032 102.265 28.9032C102.723 28.9032 103.156 28.8262 103.558 28.6764C103.961 28.5224 104.38 28.2657 104.813 27.8935C104.847 28.2187 104.924 28.5053 105.048 28.7449H106.273C106.123 28.4796 106.025 28.2058 105.978 27.9149C105.926 27.624 105.901 26.9352 105.901 25.8486H105.905ZM104.719 25.7074C104.719 26.2251 104.654 26.6144 104.53 26.8796C104.363 27.2219 104.106 27.4914 103.755 27.6882C103.404 27.885 103.001 27.9834 102.548 27.9834C102.094 27.9834 101.747 27.8807 101.507 27.6711C101.267 27.4614 101.152 27.2005 101.152 26.8882C101.152 26.6828 101.207 26.4989 101.314 26.332C101.421 26.1652 101.58 26.0368 101.777 25.9513C101.974 25.8657 102.316 25.7844 102.8 25.716C103.652 25.5962 104.29 25.4464 104.714 25.271V25.7031L104.719 25.7074Z" fill="white"/>
<path d="M109.772 27.7439C109.596 27.7439 109.464 27.7139 109.369 27.6583C109.275 27.6027 109.207 27.5257 109.168 27.4316C109.125 27.3375 109.108 27.1235 109.108 26.7856V22.7427H110.286V21.8315H109.108V19.4143L107.944 20.1159V21.8272H107.083V22.7384H107.944V26.7171C107.944 27.4187 107.991 27.8808 108.085 28.099C108.179 28.3171 108.346 28.4968 108.582 28.6295C108.817 28.7621 109.147 28.8305 109.571 28.8305C109.832 28.8305 110.127 28.7963 110.457 28.7279L110.286 27.6925C110.072 27.7225 109.9 27.7396 109.772 27.7396V27.7439Z" fill="white"/>
<path d="M114.277 21.6731C113.322 21.6731 112.542 21.994 111.943 22.6357C111.343 23.2774 111.043 24.1801 111.043 25.3438C111.043 26.5074 111.339 27.3417 111.934 27.962C112.529 28.5866 113.33 28.8989 114.341 28.8989C115.146 28.8989 115.805 28.7021 116.323 28.3128C116.842 27.9235 117.193 27.3716 117.385 26.6657L116.174 26.516C115.998 27.0122 115.754 27.3716 115.45 27.5983C115.146 27.8251 114.778 27.9363 114.349 27.9363C113.771 27.9363 113.292 27.7352 112.902 27.3331C112.517 26.9309 112.298 26.3491 112.255 25.5876H117.415C117.415 25.4507 117.424 25.3438 117.424 25.2753C117.424 24.133 117.129 23.2475 116.546 22.6186C115.96 21.9897 115.206 21.6731 114.277 21.6731V21.6731ZM112.32 24.6207C112.358 24.0175 112.564 23.5341 112.928 23.1747C113.296 22.8154 113.746 22.6357 114.285 22.6357C114.88 22.6357 115.364 22.8624 115.737 23.3116C115.981 23.6025 116.127 24.0389 116.182 24.6207H112.315H112.32Z" fill="white"/>
<path d="M59.7206 8.1029C59.7206 7.4954 59.5707 6.94352 59.2752 6.45581C58.9798 5.96382 58.5087 5.55312 57.8578 5.2237C57.2112 4.89 56.1363 4.56486 54.6333 4.23972C54.0252 4.11566 53.6441 3.97876 53.4813 3.82902C53.3186 3.68784 53.233 3.52955 53.233 3.35414C53.233 3.11029 53.3315 2.90494 53.5327 2.73381C53.734 2.56269 54.038 2.4814 54.4406 2.4814C54.9202 2.4814 55.3013 2.59263 55.5754 2.81937C55.8537 3.04612 56.0336 3.40976 56.1192 3.9103L59.3566 3.72207C59.211 2.57124 58.7699 1.72844 58.0248 1.19795C57.284 0.667462 56.2006 0.406494 54.7789 0.406494C53.6226 0.406494 52.7105 0.551951 52.0468 0.838588C51.383 1.1295 50.8863 1.53165 50.5565 2.03647C50.2225 2.54557 50.0598 3.08462 50.0598 3.65789C50.0598 4.53064 50.381 5.24509 51.0276 5.80553C51.6699 6.36597 52.7405 6.81517 54.2479 7.15315C55.1685 7.35422 55.7552 7.56813 56.0079 7.79915C56.2605 8.02589 56.3847 8.28686 56.3847 8.5735C56.3847 8.87724 56.252 9.14249 55.9907 9.37351C55.7252 9.60453 55.3441 9.72004 54.8559 9.72004C54.1965 9.72004 53.6912 9.49758 53.34 9.04837C53.1216 8.76601 52.976 8.36387 52.9075 7.83337L49.6401 8.03873C49.7386 9.1596 50.1497 10.088 50.8777 10.8152C51.6057 11.5468 52.9118 11.9062 54.8003 11.9062C55.8794 11.9062 56.7701 11.7522 57.4724 11.4399C58.1833 11.1276 58.7314 10.6741 59.1254 10.0709C59.5193 9.47191 59.7163 8.81307 59.7163 8.09862L59.7206 8.1029Z" fill="white"/>
<path d="M107.587 9.01836C107.587 7.72635 107.75 6.84933 108.067 6.37446C108.289 6.04504 108.602 5.87391 109.009 5.87391C109.219 5.87391 109.51 5.94664 109.874 6.10065L110.67 4.26105V11.2131C110.67 11.7478 110.602 12.1072 110.469 12.2869C110.332 12.4665 110.135 12.5564 109.87 12.5564C109.754 12.5564 109.57 12.5307 109.321 12.4794L108.859 14.7254C109.745 14.9051 110.486 14.9907 111.082 14.9907C111.805 14.9907 112.362 14.8623 112.747 14.6014C113.137 14.3447 113.402 14.011 113.548 13.596C113.694 13.1767 113.762 12.4751 113.762 11.474V3.6621H110.666V3.83323C110.187 3.60221 109.741 3.48242 109.33 3.48242C108.898 3.48242 108.529 3.58938 108.234 3.80328C107.943 4.01719 107.651 4.41506 107.373 4.98405V3.66638H104.487V11.7179H107.583V9.01836H107.587Z" fill="white"/>
<path d="M113.766 0.594727H110.67V2.71669H113.766V0.594727Z" fill="white"/>
<path d="M62.8807 7.85048C62.8807 7.11892 62.9963 6.60554 63.2319 6.32746C63.4588 6.0451 63.7672 5.90392 64.1397 5.90392C64.478 5.90392 64.7392 6.00659 64.9276 6.2205C65.1118 6.43013 65.206 6.78522 65.206 7.29004V11.7222H68.3021V6.59698C68.3021 5.54028 68.0666 4.75737 67.5827 4.24399C67.0988 3.73489 66.4393 3.4782 65.6 3.4782C65.0347 3.4782 64.5422 3.56805 64.1269 3.76056C63.7158 3.9488 63.2961 4.25683 62.8807 4.6932V0.594727H59.7932V11.7179H62.8807V7.8462V7.85048Z" fill="white"/>
<path d="M117.472 0.594727H114.384V2.6953H117.472V0.594727Z" fill="white"/>
<path d="M117.472 3.66211H114.384V11.7222H117.472V3.66211Z" fill="white"/>
<path d="M77.201 10.0022V6.44279C77.201 6.06631 77.1239 5.66844 76.974 5.24918C76.8199 4.8342 76.6143 4.51334 76.3531 4.28232C75.9806 3.9529 75.5138 3.73899 74.9485 3.63204C74.3918 3.52937 73.6467 3.47803 72.7218 3.47803C72.1479 3.47803 71.6084 3.52081 71.1159 3.60637C70.6234 3.69194 70.2295 3.816 69.9511 3.97002C69.5529 4.1882 69.2531 4.44489 69.0433 4.74008C68.8335 5.03528 68.675 5.4417 68.5637 5.95936L71.5099 6.26739C71.6341 5.92085 71.7882 5.68128 71.9895 5.55721C72.2421 5.39892 72.619 5.31336 73.1243 5.31336C73.5225 5.31336 73.7966 5.39036 73.955 5.5401C74.1135 5.69411 74.1863 5.95936 74.1863 6.34011C73.8052 6.48985 73.4369 6.61392 73.0943 6.70804C72.7517 6.80216 72.0023 6.96473 70.8418 7.20002C69.8783 7.39254 69.2146 7.68346 68.8591 8.07705C68.4994 8.47064 68.3196 8.97546 68.3196 9.58724C68.3196 10.2418 68.568 10.7894 69.0647 11.23C69.5614 11.675 70.2937 11.8974 71.2529 11.8974C71.9766 11.8974 72.6104 11.7862 73.1543 11.5637C73.5525 11.3969 73.955 11.1231 74.3576 10.7295C74.3918 10.9605 74.4304 11.1359 74.4646 11.2429C74.4989 11.3498 74.576 11.5081 74.6916 11.7178H77.5864C77.4237 11.3798 77.3209 11.1103 77.2738 10.8921C77.2267 10.6782 77.201 10.3787 77.201 10.0022V10.0022ZM74.182 8.38507C74.182 8.76583 74.1221 9.07813 73.9979 9.32199C73.8737 9.56157 73.6596 9.76692 73.3684 9.93377C73.0686 10.1006 72.756 10.1819 72.4091 10.1819C72.0623 10.1819 71.8353 10.1006 71.6597 9.95088C71.4927 9.79686 71.4071 9.60007 71.4071 9.35622C71.4071 9.14231 71.4927 8.95407 71.6683 8.78722C71.8353 8.62465 72.2293 8.4578 72.8545 8.29523C73.3127 8.17972 73.7538 8.04282 74.1777 7.89309V8.38935L74.182 8.38507Z" fill="white"/>
<path d="M104.423 7.66634C104.423 6.56258 104.093 5.63422 103.429 4.88126C102.603 3.94435 101.387 3.47803 99.7767 3.47803C98.3678 3.47803 97.2502 3.8759 96.4194 4.67163C95.9013 5.1679 95.5501 5.74973 95.3531 6.41284C95.1947 5.83957 94.9206 5.33047 94.5267 4.88126C93.7002 3.94435 92.484 3.47803 90.8739 3.47803C89.465 3.47803 88.3473 3.8759 87.5166 4.67163C87.0156 5.15506 86.6687 5.71978 86.4674 6.3615C86.3261 5.74545 86.0863 5.19357 85.7437 4.71441C85.1528 3.89301 84.3177 3.47803 83.2429 3.47803C82.6948 3.47803 82.2023 3.59354 81.7527 3.83311C81.4186 4.00852 81.0546 4.35077 80.6521 4.85132V3.65771H77.7659V14.7852H80.8791V10.9349C81.1874 11.2557 81.5385 11.4953 81.9282 11.6579C82.3179 11.8162 82.7547 11.8974 83.23 11.8974C84.2064 11.8974 85.02 11.5466 85.6624 10.8407C86.0692 10.3958 86.3432 9.82253 86.4931 9.12092C86.7244 9.81398 87.1397 10.4086 87.7435 10.9092C88.5443 11.568 89.5849 11.8932 90.8782 11.8932C92.3299 11.8932 93.4646 11.4953 94.2868 10.7038C94.8007 10.2076 95.1561 9.62146 95.3488 8.94979C95.5672 9.7113 95.9998 10.3659 96.6464 10.9049C97.4472 11.5637 98.492 11.8889 99.781 11.8889C101.233 11.8889 102.367 11.491 103.19 10.6996C104.012 9.9081 104.423 8.89417 104.423 7.65351V7.66634ZM83.1744 9.15086C82.9346 9.44606 82.6305 9.59579 82.2708 9.59579C81.864 9.59579 81.5257 9.4375 81.2559 9.13375C80.9861 8.82572 80.8577 8.35085 80.8577 7.7134C80.8577 7.02034 80.9861 6.5198 81.2473 6.21177C81.5128 5.90374 81.8383 5.74545 82.2323 5.74545C82.5963 5.74545 82.9046 5.89946 83.1572 6.20321C83.4099 6.51124 83.5384 6.99039 83.5384 7.64067C83.5384 8.35085 83.4185 8.85139 83.1744 9.14658V9.15086ZM91.9873 9.30488C91.7046 9.64285 91.3406 9.81398 90.8996 9.81398C90.4585 9.81398 90.0902 9.64285 89.799 9.29632C89.5078 8.95407 89.3622 8.42358 89.3622 7.70485C89.3622 6.98612 89.5121 6.46846 89.8033 6.12193C90.0988 5.77968 90.4671 5.60427 90.921 5.60427C91.3449 5.60427 91.7046 5.7754 91.9916 6.11337C92.2742 6.45562 92.4198 6.97756 92.4198 7.6749C92.4198 8.42358 92.2785 8.9669 91.9916 9.30488H91.9873ZM100.89 9.30488C100.607 9.64285 100.239 9.81398 99.7981 9.81398C99.357 9.81398 98.9888 9.64285 98.7019 9.29632C98.4107 8.95407 98.2651 8.42358 98.2651 7.70485C98.2651 6.98612 98.4149 6.46846 98.7061 6.12193C99.0016 5.77968 99.3699 5.60427 99.8238 5.60427C100.248 5.60427 100.603 5.7754 100.894 6.11337C101.181 6.45562 101.327 6.97756 101.327 7.6749C101.327 8.42358 101.186 8.9669 100.899 9.30488H100.89Z" fill="white"/>
<path d="M167.655 0.393555H164.559V2.51552H167.655V0.393555Z" fill="white"/>
<path d="M164.045 11.5167V6.39576C164.045 5.33478 163.805 4.5476 163.321 4.03849C162.837 3.52939 162.169 3.27271 161.313 3.27271C160.683 3.27271 160.148 3.39249 159.707 3.61924C159.266 3.85026 158.833 4.23101 158.405 4.77006V3.46094H155.527V11.5167H158.615V7.64926C158.615 6.91769 158.73 6.40432 158.962 6.12624C159.193 5.84388 159.497 5.7027 159.87 5.7027C160.208 5.7027 160.469 5.80537 160.662 6.01928C160.846 6.22891 160.94 6.58828 160.94 7.0931V11.5253H164.04L164.045 11.5167Z" fill="white"/>
<path d="M171.354 0.393555H168.271V2.49413H171.354V0.393555Z" fill="white"/>
<path d="M171.354 3.46094H168.271V11.5167H171.354V3.46094Z" fill="white"/>
<path d="M164.559 11.0119C164.559 11.5467 164.491 11.906 164.354 12.0814C164.221 12.2611 164.02 12.3509 163.763 12.3509C163.647 12.3509 163.459 12.3253 163.214 12.2782L162.752 14.5243C163.634 14.7039 164.375 14.7895 164.97 14.7895C165.694 14.7895 166.251 14.6612 166.64 14.4002C167.026 14.1435 167.291 13.8055 167.441 13.3905C167.587 12.9756 167.659 12.2697 167.659 11.2729V3.46094H164.563V11.0119H164.559Z" fill="white"/>
<path d="M146.111 0.393555H143.015V11.5168H146.111V0.393555Z" fill="white"/>
<path d="M138.793 9.80129V6.24614C138.793 5.86538 138.715 5.47179 138.566 5.05253C138.411 4.63755 138.206 4.31669 137.945 4.08567C137.572 3.75625 137.101 3.53807 136.54 3.43539C135.983 3.32844 135.238 3.2771 134.309 3.2771C133.731 3.2771 133.196 3.31988 132.703 3.40544C132.211 3.49101 131.817 3.61507 131.538 3.77337C131.14 3.98727 130.845 4.24396 130.635 4.53916C130.425 4.83435 130.267 5.24077 130.155 5.75843L133.101 6.07074C133.221 5.7242 133.38 5.48463 133.581 5.36056C133.834 5.19799 134.211 5.11671 134.712 5.11671C135.11 5.11671 135.384 5.19371 135.542 5.34345C135.701 5.49746 135.774 5.75843 135.774 6.13919C135.392 6.28892 135.028 6.41299 134.686 6.50711C134.343 6.60123 133.59 6.7638 132.433 6.99482C131.47 7.18733 130.806 7.47825 130.446 7.87612C130.087 8.26971 129.911 8.77453 129.911 9.38631C129.911 10.0366 130.16 10.5842 130.656 11.0334C131.153 11.4783 131.885 11.7008 132.844 11.7008C133.568 11.7008 134.202 11.5896 134.746 11.3628C135.144 11.196 135.547 10.9222 135.949 10.5329C135.988 10.7639 136.022 10.935 136.056 11.0462C136.09 11.1532 136.168 11.3115 136.283 11.5211H139.178C139.015 11.1874 138.912 10.9136 138.861 10.6997C138.814 10.4858 138.788 10.1863 138.788 9.80557L138.793 9.80129ZM135.778 8.18414C135.778 8.56918 135.722 8.88148 135.598 9.12106C135.474 9.36064 135.264 9.56599 134.968 9.73284C134.673 9.89968 134.352 9.98097 134.014 9.98097C133.675 9.98097 133.435 9.90396 133.264 9.74995C133.097 9.59166 133.011 9.39914 133.011 9.15529C133.011 8.94138 133.097 8.75314 133.268 8.58629C133.435 8.42372 133.834 8.26115 134.459 8.0943C134.917 7.97879 135.358 7.84189 135.782 7.69216V8.18414H135.778Z" fill="white"/>
<path d="M142.393 0.393555H139.297V11.5168H142.393V0.393555Z" fill="white"/>
<path d="M150.851 3.2771C149.442 3.2771 148.325 3.67925 147.494 4.47498C146.668 5.27072 146.252 6.28464 146.252 7.51247C146.252 8.83442 146.74 9.89969 147.721 10.7125C148.518 11.3714 149.567 11.7008 150.86 11.7008C152.312 11.7008 153.446 11.3029 154.269 10.5157C155.087 9.72 155.498 8.71036 155.498 7.46969C155.498 6.36593 155.168 5.43757 154.508 4.68461C153.686 3.7477 152.466 3.2771 150.851 3.2771V3.2771ZM151.969 9.10823C151.682 9.4462 151.322 9.61733 150.877 9.61733C150.432 9.61733 150.072 9.44192 149.781 9.09967C149.49 8.75742 149.344 8.22693 149.344 7.50392C149.344 6.78091 149.494 6.26753 149.785 5.92528C150.081 5.57875 150.449 5.40762 150.898 5.40762C151.322 5.40762 151.682 5.57875 151.965 5.921C152.252 6.26325 152.402 6.78519 152.402 7.47825C152.402 8.22693 152.256 8.77025 151.969 9.10823Z" fill="white"/>
<path d="M129.487 1.28341C128.866 0.688747 127.937 0.393555 126.695 0.393555H120.991V11.5168H124.438V7.38834H126.318C127.702 7.38834 128.729 7.07176 129.406 6.43859C130.078 5.80542 130.416 4.9284 130.416 3.80325C130.416 2.67809 130.108 1.86524 129.487 1.27913V1.28341ZM126.674 4.7915C126.408 5.02252 125.942 5.13375 125.282 5.13375H124.438V2.6567H125.419C126.061 2.6567 126.498 2.77649 126.729 3.02034C126.961 3.25992 127.076 3.55939 127.076 3.90592C127.076 4.25245 126.944 4.56048 126.674 4.78722V4.7915Z" fill="white"/>
<path d="M14.8423 18.0537C14.8723 18.0409 14.9323 18.0152 14.9708 17.9938V17.0227C14.9108 17.0441 14.8423 17.0698 14.8038 17.0869L4.3208 21.1725L5.87954 21.2495L13.9388 18.4045C14.2428 18.2976 14.5468 18.1821 14.8466 18.0537H14.8423Z" fill="white"/>
<path d="M27.2993 17.5448V21.6048L37.5468 21.1427L27.3122 17.1897C27.3036 17.3095 27.3036 17.4678 27.2993 17.5491V17.5448Z" fill="white"/>
<path d="M21.2825 22.4645V12.1926C21.3553 9.14657 23.2738 9.19791 25.599 10.1049H25.6076L37.0198 15.1018C37.0284 14.8665 37.0284 14.6397 37.0241 14.4001C37.0241 14.259 36.9984 14.1306 36.8871 14.0322C36.6901 13.8525 36.1249 13.6001 35.8679 13.4718L21.1583 5.41602L5.51521 14.2033C5.43385 14.2461 5.12125 14.4044 5.03988 14.4771C5.03988 14.6953 5.0356 14.9092 5.03132 15.1232L16.5635 9.92091C17.3471 9.57438 18.3663 9.41609 19.1928 9.68561C20.6402 10.1562 20.9785 11.6621 20.9271 13.0183V20.0002L20.9185 20.0259C20.85 20.7446 20.9185 21.2965 20.6616 22.0195C20.2847 23.1062 19.4026 23.7436 18.3534 24.1244H18.3406L2.97583 28.8261H9.17227L19.3855 25.8742L22.4302 27.5127L25.4963 26.6528L22.4302 24.749C21.5266 24.1886 21.2654 23.5126 21.274 22.4602L21.2825 22.4645Z" fill="white"/>
<path d="M40.3433 10.1392L40.3305 10.1307L40.3134 10.1221C34.0998 6.71243 27.8391 3.37119 21.5999 0V4.47495L36.3523 12.5521C36.7334 12.7489 37.2772 12.9842 37.5855 13.2666C37.9153 13.5618 38.0609 13.9553 38.0652 14.396C38.0652 14.6912 38.0652 14.9693 38.0566 15.2645V15.3115C37.9667 15.9746 37.3714 16.3468 36.7334 16.1158H36.7162L25.2055 11.0719C24.666 10.8622 23.3427 10.3617 22.7946 10.7168C22.3835 10.982 22.3278 11.7863 22.315 12.2099V22.4689C22.315 23.1619 22.4006 23.5085 22.983 23.8721L26.259 25.9042L26.2504 17.5233V17.5062C26.259 17.3736 26.2504 17.241 26.2675 17.1084C26.336 16.2998 26.8885 15.9105 27.6764 16.2142L39.1657 20.6549C39.8851 20.9245 40.4718 21.1598 41.1955 20.9031C41.7436 20.5437 41.9235 19.6367 41.9535 19.0378C42.0562 17.1169 42.0177 15.149 41.9535 13.2323C41.9149 12.0601 41.4824 10.6868 40.339 10.1435L40.3433 10.1392Z" fill="white"/>
<path d="M19.6813 21.6689C19.8826 21.0956 19.8269 20.5351 19.8783 19.9448L19.8868 12.9927V12.9842C19.9168 12.1457 19.8098 10.982 18.8719 10.674C18.3024 10.4857 17.5273 10.6312 16.992 10.8708L5.31429 16.1415L5.29716 16.15C4.68908 16.3682 4.00392 16.1543 3.99535 15.427C3.99535 15.0976 3.99535 14.7725 4.00392 14.443C4.01248 13.7885 4.52635 13.566 5.01025 13.2922L20.6362 4.51772L20.572 0.00854492L3.04897 9.86542C2.65929 10.1435 2.24819 10.4002 1.85422 10.674C1.34463 11.0291 0.762243 11.4826 0.479614 12.0473C0.145597 12.7104 0.0556694 13.5318 0.0471049 14.2634C0.0342581 15.8762 0.0513872 17.4891 0.0556694 19.0977C0.0556694 19.4485 -0.0128468 20.8603 0.441073 21.01C0.989203 21.1897 1.86707 20.9843 2.39379 20.8089L14.4141 16.1201C15.2577 15.765 16.0671 15.9832 16.0157 17.0185V18.0281C16.0114 18.5544 15.6945 18.8239 15.2449 19.0164C14.928 19.149 14.6068 19.2731 14.2814 19.3886L0 24.4368L0.0128468 28.6465L18.0155 23.1363C18.7563 22.8667 19.4158 22.4432 19.6856 21.6689H19.6813Z" fill="white"/>
<path d="M43.2806 7.25144C43.0793 7.14021 42.8695 7.08887 42.6554 7.08887C42.4413 7.08887 42.2315 7.14448 42.0259 7.25144C41.8246 7.36267 41.6619 7.52096 41.5463 7.72631C41.4307 7.93166 41.375 8.14557 41.375 8.36804C41.375 8.5905 41.4307 8.80013 41.542 9.00548C41.6533 9.21083 41.8118 9.36912 42.0173 9.48036C42.2186 9.59587 42.4327 9.65148 42.6554 9.65148C42.8781 9.65148 43.0879 9.59587 43.2892 9.48036C43.4904 9.36912 43.6489 9.21083 43.7602 9.00548C43.8758 8.80013 43.9315 8.5905 43.9315 8.36804C43.9315 8.14557 43.8758 7.93166 43.7602 7.72631C43.6446 7.52096 43.4862 7.36267 43.2806 7.25144V7.25144ZM43.5804 8.89853C43.4862 9.06538 43.3534 9.198 43.1864 9.29212C43.0151 9.38624 42.8395 9.4333 42.6554 9.4333C42.4713 9.4333 42.2914 9.38624 42.1244 9.29212C41.9574 9.198 41.8246 9.06538 41.7261 8.89853C41.6319 8.7274 41.5848 8.552 41.5848 8.36804C41.5848 8.18408 41.6319 8.00439 41.7304 7.83327C41.8289 7.66214 41.9617 7.52952 42.1287 7.43968C42.3 7.34983 42.4755 7.2985 42.6554 7.2985C42.8353 7.2985 43.0108 7.34556 43.1778 7.43968C43.3491 7.52952 43.4819 7.66214 43.5761 7.83327C43.6703 8.00439 43.7174 8.18408 43.7174 8.36804C43.7174 8.552 43.6703 8.7274 43.5804 8.89853V8.89853Z" fill="white"/>
<path d="M42.8736 8.53053C42.8437 8.50058 42.8051 8.47919 42.758 8.4578C42.8779 8.44924 42.9721 8.40646 43.0449 8.32946C43.1177 8.25673 43.152 8.16689 43.152 8.06849C43.152 7.99576 43.1306 7.93159 43.0877 7.86742C43.0449 7.80324 42.9893 7.76046 42.9122 7.73479C42.8394 7.70912 42.7238 7.69629 42.561 7.69629H42.0857V9.07385H42.3084V8.48775H42.4411C42.5182 8.48775 42.5782 8.50486 42.6167 8.53481C42.6766 8.57759 42.7537 8.68454 42.8479 8.85567L42.9721 9.07385H43.2419L43.0749 8.80433C42.9935 8.67599 42.925 8.58615 42.8693 8.53053H42.8736ZM42.5824 8.29951H42.3127V7.88453H42.5653C42.6724 7.88453 42.7494 7.89308 42.788 7.90592C42.8265 7.92303 42.8608 7.94442 42.8822 7.97865C42.9036 8.01287 42.9165 8.0471 42.9165 8.08988C42.9165 8.15405 42.895 8.20111 42.8437 8.23962C42.7966 8.27812 42.7109 8.29523 42.5782 8.29523L42.5824 8.29951Z" fill="white"/>
</g>
<defs>
<clipPath id="clip0_3339_1554">
<rect width="171.355" height="28.9032" fill="white"/>
</clipPath>
</defs>
</svg>
